<svg id="svg" version="1.1" width="512" height="456" xmlns="http://www.w3.org/2000/svg"><path d="M288.000 2.493 C 243.137 13.002,161.855 53.237,116.500 87.388 C 108.537 93.384,98.000 103.357,98.000 104.899 C 98.000 105.344,99.688 105.727,101.750 105.751 C 103.813 105.775,108.319 106.580,111.764 107.539 L 118.028 109.284 113.968 112.760 C 105.323 120.159,82.490 153.912,80.653 162.008 C 79.988 164.936,80.678 166.268,83.676 167.846 C 85.374 168.740,88.430 168.551,97.584 166.986 C 104.036 165.883,111.606 164.382,114.407 163.650 L 119.500 162.320 119.500 178.910 C 119.500 192.396,119.842 196.480,121.326 200.738 C 123.613 207.295,125.214 208.500,124.805 203.354 L 124.500 199.522 131.833 198.779 C 140.087 197.944,159.520 191.779,169.133 186.946 C 177.730 182.623,188.772 175.490,192.811 171.649 C 194.792 169.766,195.855 169.200,195.457 170.242 C 193.845 174.464,200.629 202.588,205.510 211.913 C 209.532 219.597,209.708 220.529,208.651 228.534 L 207.854 234.568 203.177 230.034 C 200.605 227.540,196.138 223.419,193.250 220.875 C 189.593 217.653,188.000 215.504,188.000 213.790 C 188.000 210.734,184.198 198.855,182.786 197.500 C 182.064 196.807,182.004 202.637,182.591 216.500 C 183.421 236.103,183.336 256.647,182.419 258.131 C 182.164 258.543,180.653 258.426,179.061 257.872 C 175.201 256.526,171.481 258.487,166.606 264.436 C 164.549 266.946,162.334 268.967,161.683 268.926 C 159.430 268.784,138.451 242.969,139.155 241.206 C 139.345 240.731,144.425 236.105,150.444 230.925 C 172.591 211.866,181.645 202.312,179.548 200.215 C 178.653 199.320,171.835 204.407,156.908 217.108 C 148.898 223.924,140.152 231.331,137.472 233.570 C 131.257 238.762,130.932 242.293,136.018 249.375 C 139.196 253.801,139.333 254.297,137.968 256.463 C 137.160 257.744,125.678 274.926,112.450 294.646 C 89.109 329.444,70.518 359.123,67.425 366.525 C 65.561 370.987,66.347 374.000,69.378 374.000 C 71.791 374.000,81.246 370.411,94.500 364.463 C 96.150 363.723,100.285 362.008,103.689 360.653 L 109.878 358.190 109.040 360.395 C 108.579 361.607,107.890 370.902,107.509 381.050 C 106.936 396.321,107.064 399.827,108.253 401.397 C 110.245 404.029,113.280 403.064,120.398 397.537 C 124.856 394.075,127.094 393.000,129.843 393.000 C 133.388 393.000,133.410 393.025,131.223 394.557 C 128.557 396.424,128.333 400.190,130.745 402.603 C 131.705 403.563,135.418 405.721,138.995 407.399 C 144.640 410.047,146.623 410.451,154.000 410.460 C 161.699 410.468,163.107 410.154,168.940 407.124 C 184.628 398.976,199.173 379.238,205.450 357.576 C 208.323 347.663,212.000 329.265,212.000 324.807 C 212.000 323.016,215.740 313.680,220.894 302.608 C 232.833 276.958,239.812 260.056,240.625 254.822 L 241.296 250.500 239.057 252.488 C 236.327 254.910,231.417 263.255,227.575 272.000 C 226.004 275.575,220.058 288.342,214.362 300.372 C 203.936 322.391,200.934 330.201,201.079 334.932 C 201.122 336.344,201.378 336.825,201.647 336.000 C 202.995 331.863,205.392 327.000,206.082 327.000 C 206.510 327.000,206.406 328.462,205.851 330.250 C 205.296 332.038,203.975 337.325,202.915 342.000 C 198.668 360.730,193.900 372.239,185.879 383.123 C 179.781 391.398,174.329 396.447,166.000 401.532 C 160.144 405.107,158.856 405.495,153.000 405.454 C 148.221 405.420,145.309 404.792,142.000 403.083 C 134.202 399.054,134.177 399.491,142.720 390.695 C 150.995 382.174,151.264 379.656,143.326 385.013 C 138.927 387.981,138.272 388.135,133.064 387.415 C 130.004 386.992,127.162 386.557,126.750 386.448 C 126.338 386.339,125.438 386.174,124.750 386.081 C 124.063 385.988,125.300 384.984,127.500 383.850 C 133.912 380.545,140.640 373.268,147.703 362.000 C 156.435 348.067,164.230 338.293,179.681 321.897 L 192.500 308.293 204.368 282.897 C 218.656 252.321,223.522 244.481,230.295 241.122 C 232.933 239.814,237.208 238.541,239.795 238.293 C 242.383 238.045,245.175 237.604,246.000 237.314 C 248.357 236.483,244.301 235.154,239.158 235.070 C 236.416 235.026,233.878 234.263,232.273 233.000 C 230.475 231.586,230.192 231.000,231.308 231.000 C 232.928 231.000,236.024 227.365,235.970 225.527 C 235.953 224.962,235.481 225.287,234.920 226.250 C 232.371 230.626,222.919 226.117,217.222 217.807 C 210.491 207.989,205.123 192.509,201.936 173.730 C 201.305 170.006,200.015 166.006,199.071 164.840 C 197.012 162.297,196.724 162.422,183.332 171.637 C 167.002 182.873,143.562 193.120,125.112 197.087 C 122.620 197.623,122.319 182.768,124.543 169.000 C 127.785 148.925,134.683 130.236,145.420 112.428 C 149.068 106.378,149.786 103.604,147.992 102.495 C 147.437 102.152,143.275 102.659,138.742 103.621 C 129.311 105.622,111.935 105.927,107.685 104.166 C 105.574 103.292,104.322 103.284,102.685 104.135 C 99.497 105.792,100.433 105.014,111.578 96.744 C 165.159 56.983,248.683 15.836,293.851 6.950 C 303.124 5.125,317.497 6.110,322.962 8.943 C 333.184 14.243,343.396 29.048,351.974 51.000 C 354.230 56.775,356.540 62.331,357.108 63.347 C 358.386 65.638,357.528 66.683,355.648 65.123 C 353.609 63.430,339.143 61.553,334.660 62.399 C 327.607 63.731,315.564 77.558,312.874 87.414 L 311.758 91.500 310.380 86.172 C 307.085 73.438,297.723 53.890,290.661 45.000 C 283.051 35.420,269.868 29.079,257.500 29.048 C 247.569 29.023,246.550 30.366,255.373 31.849 C 269.995 34.306,282.296 42.350,289.790 54.357 C 294.021 61.135,300.256 75.182,302.092 82.071 C 303.269 86.485,303.247 86.552,295.756 101.500 C 257.858 177.129,233.201 233.000,237.723 233.000 C 239.008 233.000,252.022 207.380,261.598 186.000 C 270.325 166.515,286.930 132.600,299.296 109.001 C 306.736 94.805,307.470 93.754,308.036 96.501 C 308.375 98.151,309.225 100.566,309.925 101.869 C 311.135 104.121,311.486 103.649,317.005 92.369 C 322.557 81.022,328.124 73.074,331.959 71.022 C 332.939 70.498,335.615 69.647,337.906 69.132 L 342.072 68.196 339.953 71.348 C 338.788 73.082,335.229 79.900,332.043 86.500 C 321.857 107.606,317.552 117.676,310.040 137.973 C 298.202 169.961,294.093 187.038,291.867 213.500 C 290.843 225.671,290.909 228.872,292.372 238.000 C 294.036 248.381,300.492 272.756,307.999 297.000 C 312.326 310.974,319.163 334.963,320.915 342.317 C 322.849 350.436,323.360 364.920,322.040 374.221 C 320.662 383.925,317.059 392.586,312.002 398.345 C 308.999 401.766,294.059 412.392,293.308 411.641 C 293.127 411.460,293.617 409.504,294.397 407.293 C 297.851 397.504,298.999 373.375,296.558 361.862 C 292.069 340.683,280.976 327.220,263.287 321.484 C 260.420 320.555,257.547 319.160,256.904 318.384 C 255.084 316.191,256.462 299.095,259.435 287.000 C 264.709 265.537,266.218 257.297,266.300 249.500 C 266.422 238.012,263.835 232.876,255.682 228.419 C 250.906 225.808,250.471 227.413,254.987 230.989 C 265.153 239.041,265.506 247.935,257.032 282.500 C 254.942 291.026,253.614 299.458,253.173 307.000 L 252.500 318.500 245.500 319.263 C 236.286 320.267,228.764 322.498,226.625 324.862 C 224.931 326.734,225.150 326.761,237.823 326.247 C 253.625 325.606,262.104 327.327,270.769 332.933 C 279.632 338.667,284.224 345.718,288.187 359.677 C 289.988 366.018,290.408 370.058,290.405 381.000 C 290.398 403.133,286.274 414.048,275.967 419.204 C 268.430 422.974,255.112 425.525,249.889 424.200 C 246.338 423.299,246.052 423.357,247.207 424.750 C 249.796 427.872,254.753 429.000,265.886 429.000 L 276.837 429.000 279.033 435.600 C 282.983 447.468,280.734 448.625,254.277 448.331 C 236.494 448.134,227.510 446.942,216.555 443.328 C 210.173 441.222,207.680 439.775,203.876 435.971 C 197.887 429.982,196.020 424.279,198.409 419.270 C 199.284 417.434,200.000 413.728,200.000 411.034 C 200.000 402.531,208.180 373.883,211.790 369.744 C 213.917 367.304,212.564 366.400,209.646 368.312 C 205.023 371.341,196.852 395.456,195.412 410.318 C 194.889 415.716,194.131 418.202,192.358 420.327 C 189.594 423.640,189.503 424.523,191.524 428.399 C 192.355 429.993,192.765 431.568,192.435 431.899 C 192.104 432.229,175.334 432.493,155.167 432.484 C 125.676 432.471,115.959 432.121,105.514 430.694 C 82.226 427.513,66.250 423.196,52.965 416.495 C 39.439 409.672,20.557 394.613,13.539 385.053 C 10.519 380.939,2.267 361.000,3.585 361.000 C 3.811 361.000,6.134 362.508,8.748 364.351 C 11.361 366.194,15.300 368.688,17.500 369.894 C 20.388 371.478,23.256 374.715,27.821 381.544 C 32.696 388.838,35.611 392.048,40.567 395.585 C 44.100 398.106,47.460 400.013,48.032 399.823 C 48.604 399.632,45.368 395.726,40.839 391.142 C 33.074 383.283,32.830 382.907,36.553 384.546 C 43.960 387.806,61.549 392.831,69.354 393.916 C 78.215 395.149,96.259 395.198,100.000 394.000 C 101.879 393.398,101.000 393.175,96.465 393.100 C 87.523 392.952,61.929 388.452,50.500 385.017 C 33.696 379.968,32.424 379.329,28.614 374.025 C 25.780 370.081,23.156 368.120,14.508 363.481 C 1.570 356.541,0.000 356.038,-0.000 358.835 C -0.000 359.972,1.868 366.662,4.151 373.701 L 8.303 386.500 18.901 397.128 C 36.505 414.781,54.617 425.263,77.506 431.043 C 101.850 437.191,128.163 439.458,167.431 438.789 L 195.500 438.310 200.000 442.047 C 202.475 444.102,206.366 446.718,208.648 447.860 C 219.874 453.480,239.871 456.435,262.560 455.827 C 279.365 455.377,284.509 453.661,287.415 447.538 C 289.611 442.910,289.022 439.197,284.854 431.385 L 281.766 425.599 284.633 423.297 C 290.823 418.328,295.038 417.527,307.853 418.880 C 329.945 421.212,348.287 416.358,355.348 406.312 C 361.518 397.534,359.072 385.647,350.242 381.500 L 345.984 379.500 346.567 373.500 C 346.887 370.200,346.650 363.450,346.040 358.500 C 343.512 337.980,337.485 323.694,326.423 312.000 C 319.687 304.880,319.095 303.859,314.727 291.840 C 301.944 256.671,297.366 226.978,300.953 202.500 C 304.402 178.960,322.288 124.709,338.572 88.397 C 341.558 81.740,344.000 75.639,344.000 74.838 C 344.000 74.037,344.611 72.546,345.358 71.524 C 346.611 69.811,347.184 69.766,352.723 70.941 C 359.636 72.408,362.591 71.477,363.585 67.517 C 364.383 64.338,361.017 54.285,354.541 40.500 C 344.876 19.928,335.542 8.451,324.218 3.217 C 315.913 -0.622,302.447 -0.891,288.000 2.493 M230.500 49.386 C 219.207 54.043,202.480 62.597,196.000 67.029 C 190.128 71.044,183.950 77.000,185.656 77.000 C 187.781 77.000,197.786 73.108,205.912 69.120 C 210.539 66.849,214.387 65.106,214.464 65.246 C 214.540 65.386,215.135 68.165,215.785 71.422 C 217.225 78.639,221.108 84.505,226.149 87.076 C 230.719 89.408,234.112 89.511,238.117 87.439 C 241.131 85.881,241.134 85.882,239.903 88.189 C 237.256 93.156,226.814 102.834,221.754 105.010 C 212.566 108.963,210.883 108.489,202.849 99.684 C 198.977 95.440,194.872 91.466,193.726 90.853 C 191.827 89.837,191.881 90.126,194.336 94.119 C 195.817 96.529,198.558 101.447,200.426 105.049 C 204.214 112.352,206.623 114.000,213.510 114.000 C 221.084 114.000,228.442 110.491,236.184 103.187 C 247.187 92.808,252.311 80.607,252.432 64.500 C 252.493 56.384,252.226 55.033,249.708 50.750 C 247.069 46.260,246.685 46.002,242.708 46.043 C 240.320 46.068,235.039 47.514,230.500 49.386 M243.965 55.934 C 245.514 58.829,245.213 71.921,243.461 77.818 L 241.923 83.000 236.366 83.000 C 229.519 83.000,226.360 81.247,222.202 75.142 C 218.271 69.369,217.226 64.888,219.391 63.090 C 221.827 61.069,238.241 54.112,240.715 54.053 C 241.933 54.024,243.395 54.870,243.965 55.934 M141.765 108.750 C 135.593 115.253,121.000 150.307,121.000 158.627 C 121.000 159.932,120.662 160.921,120.250 160.824 C 119.838 160.727,116.125 160.936,112.000 161.287 C 107.875 161.639,100.298 162.166,95.162 162.458 L 85.824 162.991 90.051 155.245 C 98.206 140.299,117.026 114.197,122.321 110.488 C 123.489 109.670,126.707 108.964,129.473 108.920 C 133.602 108.853,137.049 108.189,143.937 106.131 C 144.177 106.059,143.200 107.237,141.765 108.750 M446.757 108.966 C 439.134 110.358,428.890 114.008,423.500 117.253 C 407.473 126.903,394.696 143.861,393.306 157.328 C 392.797 162.254,392.963 162.826,395.474 164.801 C 400.606 168.838,421.762 179.000,425.034 179.000 C 427.477 179.000,429.535 177.794,433.860 173.829 C 439.307 168.835,455.818 157.484,456.558 158.225 C 456.758 158.425,453.770 163.518,449.918 169.544 C 436.187 191.025,433.607 198.831,434.151 217.254 C 434.494 228.883,434.572 229.235,437.307 231.588 C 439.895 233.814,440.936 233.999,450.806 233.989 C 464.606 233.975,469.000 233.260,469.000 231.030 C 469.000 228.261,464.133 226.710,454.000 226.249 C 446.858 225.924,444.190 225.420,443.250 224.217 C 441.507 221.987,441.653 207.751,443.492 200.693 C 445.248 193.948,448.768 186.725,454.203 178.709 C 462.624 166.290,464.925 157.925,461.000 154.000 C 456.453 149.453,445.441 153.471,432.645 164.345 C 428.338 168.005,424.190 171.000,423.427 171.000 C 421.706 171.000,401.927 163.175,400.347 161.869 C 397.575 159.578,405.553 145.555,414.607 136.805 C 424.536 127.209,428.589 124.739,440.355 121.113 C 448.147 118.711,461.470 118.271,470.201 120.126 C 482.017 122.637,495.595 131.728,499.134 139.500 C 503.338 148.730,500.613 157.219,488.211 173.527 C 474.466 191.600,472.576 196.804,472.532 216.695 C 472.498 231.804,473.252 234.589,476.778 232.372 C 479.454 230.690,481.902 222.834,483.470 210.894 C 485.171 197.953,486.960 193.951,497.185 180.217 C 507.663 166.143,511.376 158.289,511.846 149.198 C 512.185 142.655,511.906 141.253,509.166 135.698 C 503.763 124.749,492.602 116.173,477.578 111.426 C 468.794 108.652,454.660 107.523,446.757 108.966 M215.000 249.222 C 215.000 249.637,210.888 258.645,205.861 269.239 C 200.835 279.832,195.901 290.750,194.897 293.500 L 193.072 298.500 192.993 291.500 C 192.897 283.019,190.497 262.156,189.507 261.193 C 189.115 260.812,188.953 270.557,189.147 282.848 L 189.500 305.196 183.500 310.292 C 168.169 323.314,152.429 341.733,142.429 358.355 C 136.262 368.606,128.763 376.550,121.991 380.004 C 114.281 383.938,116.326 390.854,125.000 390.178 C 126.603 390.054,125.775 390.677,122.692 391.917 C 120.048 392.980,116.387 394.993,114.557 396.389 L 111.229 398.927 112.034 395.214 C 112.476 393.171,112.987 383.231,113.169 373.124 C 113.558 351.528,113.588 351.596,104.893 354.440 C 98.018 356.689,79.487 364.563,75.250 367.036 C 73.463 368.079,72.000 368.716,72.000 368.451 C 72.000 368.186,73.506 365.614,75.347 362.735 C 77.188 359.856,80.487 354.575,82.679 351.000 C 84.871 347.425,89.288 340.225,92.495 335.000 C 95.702 329.775,102.927 318.525,108.551 310.000 C 119.546 293.330,139.425 262.087,141.635 258.000 C 142.379 256.625,142.990 256.100,142.994 256.833 C 143.002 258.497,157.546 275.612,159.633 276.413 C 162.388 277.470,163.101 277.070,169.632 270.798 C 176.584 264.122,175.721 264.335,183.176 267.455 C 185.276 268.335,187.967 264.531,188.280 260.241 L 188.500 257.224 192.228 260.589 C 196.085 264.071,202.864 267.470,203.895 266.438 C 204.509 265.824,197.102 258.751,192.741 255.786 C 190.271 254.107,190.212 253.772,189.824 239.286 C 189.566 229.663,188.966 223.627,188.106 222.000 C 187.379 220.625,193.132 226.017,200.892 233.983 C 208.651 241.948,215.000 248.806,215.000 249.222 M221.301 228.924 L 228.065 233.349 224.584 236.924 C 222.669 238.891,220.486 241.971,219.733 243.769 L 218.364 247.038 214.182 241.393 C 211.882 238.289,210.000 235.412,210.000 235.000 C 210.000 234.588,210.675 232.338,211.500 230.000 C 212.325 227.662,213.045 224.343,213.100 222.624 C 213.193 219.699,213.242 219.659,213.868 222.000 C 214.301 223.618,216.923 226.061,221.301 228.924 M455.500 247.609 C 447.441 249.050,442.913 250.225,437.628 252.246 L 434.755 253.344 435.426 260.922 C 436.447 272.452,439.873 288.013,442.071 291.099 C 445.020 295.241,449.787 296.372,461.439 295.697 C 483.182 294.437,491.026 290.217,490.988 279.800 C 490.977 276.753,486.029 254.498,484.574 250.947 C 482.537 245.977,471.635 244.725,455.500 247.609 M476.791 255.250 C 478.336 257.114,483.000 275.840,483.000 280.179 C 483.000 283.340,482.525 284.194,480.058 285.470 C 476.379 287.372,465.684 288.959,456.500 288.965 C 448.917 288.970,447.882 288.608,446.169 285.351 C 445.208 283.525,438.000 256.403,438.000 254.613 C 438.000 254.276,446.495 254.000,456.878 254.000 C 470.760 254.000,476.029 254.331,476.791 255.250 M144.146 286.000 C 139.251 294.456,127.366 318.009,124.933 324.076 C 122.330 330.563,119.900 339.234,120.513 339.846 C 122.445 341.778,128.822 329.358,141.112 299.730 C 148.383 282.201,149.641 276.508,144.146 286.000 M167.511 283.983 C 166.315 285.917,165.591 319.668,166.770 318.500 C 167.993 317.289,170.006 300.588,169.985 291.830 C 169.969 285.228,168.878 281.770,167.511 283.983 M326.165 322.051 C 331.002 331.939,334.805 342.388,336.414 350.208 C 338.542 360.551,338.526 376.081,336.384 380.225 C 333.982 384.868,324.978 397.000,323.932 397.000 C 323.433 397.000,324.172 394.413,325.574 391.250 C 330.723 379.634,332.497 360.781,329.919 345.082 C 328.566 336.842,322.948 317.779,321.547 316.674 C 320.897 316.161,321.068 315.991,322.000 316.225 C 322.825 316.432,324.699 319.054,326.165 322.051 M348.784 390.385 C 349.489 391.074,350.314 393.182,350.615 395.069 C 351.357 399.714,347.853 404.836,341.991 407.677 C 335.997 410.582,322.355 413.018,312.500 412.944 L 304.500 412.883 311.500 410.107 C 326.234 404.264,333.905 399.243,339.296 391.913 C 341.841 388.452,342.665 387.948,344.890 388.493 C 346.326 388.844,348.078 389.696,348.784 390.385 M186.245 412.612 C 184.959 414.938,183.678 421.000,184.472 421.000 C 185.382 421.000,188.075 413.623,187.740 412.046 C 187.484 410.835,187.159 410.958,186.245 412.612 " stroke="none" fill="#3F3F3F" fill-rule="evenodd"/></svg>